[Header]
FileType HTR
DataType HTRS
FileVersion 1
NumSegments 64
NumFrames 4
DataFrameRate 30
EulerRotationOrder ZYX
CalibrationUnits mm
RotationUnits Degrees
GlobalAxisofGravity Y
BoneLengthAxis Y
ScaleFactor 1.0
[SegmentNames&Hierarchy]
Hips	GLOBAL
Spine	Hips
Spine1	Spine
Spine2	Spine1
Neck	Spine2
Head	Neck
LeftEye	Head
RightEye	Head
LeftShoulder	Spine2
LeftArm	LeftShoulder
LeftForeArm	LeftArm
LeftHand	LeftForeArm
LeftHandThumb1	LeftHand
LeftHandThumb2	LeftHandThumb1
LeftHandThumb3	LeftHandThumb2
LeftHandThumb4	LeftHandThumb3
LeftHandIndex1	LeftHand
LeftHandIndex2	LeftHandIndex1
LeftHandIndex3	LeftHandIndex2
LeftHandIndex4	LeftHandIndex3
LeftHandMiddle1	LeftHand
LeftHandMiddle2	LeftHandMiddle1
LeftHandMiddle3	LeftHandMiddle2
LeftHandMiddle4	LeftHandMiddle3
LeftHandRing1	LeftHand
LeftHandRing2	LeftHandRing1
LeftHandRing3	LeftHandRing2
LeftHandRing4	LeftHandRing3
LeftHandPinky1	LeftHand
LeftHandPinky2	LeftHandPinky1
LeftHandPinky3	LeftHandPinky2
LeftHandPinky4	LeftHandPinky3
RightShoulder	Spine2
RightArm	RightShoulder
RightForeArm	RightArm
RightHand	RightForeArm
RightHandPinky1	RightHand
RightHandPinky2	RightHandPinky1
RightHandPinky3	RightHandPinky2
RightHandPinky4	RightHandPinky3
RightHandRing1	RightHand
RightHandRing2	RightHandRing1
RightHandRing3	RightHandRing2
RightHandRing4	RightHandRing3
RightHandMiddle1	RightHand
RightHandMiddle2	RightHandMiddle1
RightHandMiddle3	RightHandMiddle2
RightHandMiddle4	RightHandMiddle3
RightHandIndex1	RightHand
RightHandIndex2	RightHandIndex1
RightHandIndex3	RightHandIndex2
RightHandIndex4	RightHandIndex3
RightHandThumb1	RightHand
RightHandThumb2	RightHandThumb1
RightHandThumb3	RightHandThumb2
RightHandThumb4	RightHandThumb3
LeftUpLeg	Hips
LeftLeg	LeftUpLeg
LeftFoot	LeftLeg
LeftToeBase	LeftFoot
RightUpLeg	Hips
RightLeg	RightUpLeg
RightFoot	RightLeg
RightToeBase	RightFoot
[BasePosition]
Hips	0	0	0	0	0	0	1
Spine	0	0	0	0	0	0	1
Spine1	0	0	0	0	0	0	1
Spine2	0	0	0	0	0	0	1
Neck	0	0	0	0	0	0	1
Head	0	0	0	0	0	0	1
LeftEye	0	0	0	0	0	0	1
RightEye	0	0	0	0	0	0	1
LeftShoulder	0	0	0	0	0	0	1
LeftArm	0	0	0	0	0	0	1
LeftForeArm	0	0	0	0	0	0	1
LeftHand	0	0	0	0	0	0	1
LeftHandThumb1	0	0	0	0	0	0	1
LeftHandThumb2	0	0	0	0	0	0	1
LeftHandThumb3	0	0	0	0	0	0	1
LeftHandThumb4	0	0	0	0	0	0	1
LeftHandIndex1	0	0	0	0	0	0	1
LeftHandIndex2	0	0	0	0	0	0	1
LeftHandIndex3	0	0	0	0	0	0	1
LeftHandIndex4	0	0	0	0	0	0	1
LeftHandMiddle1	0	0	0	0	0	0	1
LeftHandMiddle2	0	0	0	0	0	0	1
LeftHandMiddle3	0	0	0	0	0	0	1
LeftHandMiddle4	0	0	0	0	0	0	1
LeftHandRing1	0	0	0	0	0	0	1
LeftHandRing2	0	0	0	0	0	0	1
LeftHandRing3	0	0	0	0	0	0	1
LeftHandRing4	0	0	0	0	0	0	1
LeftHandPinky1	0	0	0	0	0	0	1
LeftHandPinky2	0	0	0	0	0	0	1
LeftHandPinky3	0	0	0	0	0	0	1
LeftHandPinky4	0	0	0	0	0	0	1
RightShoulder	0	0	0	0	0	0	1
RightArm	0	0	0	0	0	0	1
RightForeArm	0	0	0	0	0	0	1
RightHand	0	0	0	0	0	0	1
RightHandPinky1	0	0	0	0	0	0	1
RightHandPinky2	0	0	0	0	0	0	1
RightHandPinky3	0	0	0	0	0	0	1
RightHandPinky4	0	0	0	0	0	0	1
RightHandRing1	0	0	0	0	0	0	1
RightHandRing2	0	0	0	0	0	0	1
RightHandRing3	0	0	0	0	0	0	1
RightHandRing4	0	0	0	0	0	0	1
RightHandMiddle1	0	0	0	0	0	0	1
RightHandMiddle2	0	0	0	0	0	0	1
RightHandMiddle3	0	0	0	0	0	0	1
RightHandMiddle4	0	0	0	0	0	0	1
RightHandIndex1	0	0	0	0	0	0	1
RightHandIndex2	0	0	0	0	0	0	1
RightHandIndex3	0	0	0	0	0	0	1
RightHandIndex4	0	0	0	0	0	0	1
RightHandThumb1	0	0	0	0	0	0	1
RightHandThumb2	0	0	0	0	0	0	1
RightHandThumb3	0	0	0	0	0	0	1
RightHandThumb4	0	0	0	0	0	0	1
LeftUpLeg	0	0	0	0	0	0	1
LeftLeg	0	0	0	0	0	0	1
LeftFoot	0	0	0	0	0	0	1
LeftToeBase	0	0	0	0	0	0	1
RightUpLeg	0	0	0	0	0	0	1
RightLeg	0	0	0	0	0	0	1
RightFoot	0	0	0	0	0	0	1
RightToeBase	0	0	0	0	0	0	1
[Hips]
25	52.15032196	1106.596924	-2.078102827	2.964587212	-7.273213863	4.643744469	1.0
26	38.74387741	1155.977661	-6.165692806	4.325773239	1.969542623	4.423108101	1.0
27	36.3775444	1206.109131	-19.6692543	6.956768513	7.431447029	2.361156464	1.0
28	38.37670898	1239.780029	-35.23846436	9.641983986	9.257912636	0.2992850244	1.0
[Spine]
25	0	101.8159943	1.315000057	6.052170277	1.886532664	-3.597512722	1.0
26	0	101.8159943	1.315000057	7.031484604	-0.4295595884	-5.71795702	1.0
27	0	101.8159943	1.315000057	8.914852142	-2.003225803	-6.017482758	1.0
28	0	101.8159943	1.315000057	11.16104698	-2.797056437	-5.045185089	1.0
[Spine1]
25	0	100.8349991	-10.00800037	1.939132214	0.3244843781	0.2049581409	1.0
26	0	100.8349991	-10.00800037	2.044346809	-0.2854293585	-0.4302491546	1.0
27	0	100.8349991	-10.00800037	2.608781338	-0.4081291258	-0.7769132257	1.0
28	0	100.8349991	-10.00800037	3.438150167	-0.1382818371	-0.8662680984	1.0
[Spine2]
25	0	91	-13.73399925	1.911285281	0.3544696867	0.2245542556	1.0
26	0	91	-13.73399925	2.023998499	-0.2838132083	-0.4087930322	1.0
27	0	91	-13.73399925	2.5819664	-0.426160723	-0.7739869952	1.0
28	0	91	-13.73399925	3.395782948	-0.162550956	-0.9055752754	1.0
[Neck]
25	0	166.7169952	-25.16200066	13.73989868	-0.4487436414	-1.935906649	1.0
26	0	166.7169952	-25.16200066	16.30669403	-0.02341230214	-1.950589418	1.0
27	0	166.7169952	-25.16200066	17.75875092	0.3053609431	-2.224232197	1.0
28	0	166.7169952	-25.16200066	18.63077736	0.3401700556	-2.479851484	1.0
[Head]
25	0	96.17900085	16.84999847	-10.28061199	-5.39036274	3.677202702	1.0
26	0	96.17900085	16.84999847	-8.615303993	-7.392055988	9.115810394	1.0
27	0	96.17900085	16.84999847	-10.34188175	-7.810170174	12.38436699	1.0
28	0	96.17900085	16.84999847	-14.86866856	-6.900509357	13.64869595	1.0
[LeftEye]
25	30.6760006	64.09500122	92.83599854	0	0	0	1.0
26	30.6760006	64.09500122	92.83599854	0	0	0	1.0
27	30.6760006	64.09500122	92.83599854	0	0	0	1.0
28	30.6760006	64.09500122	92.83599854	0	0	0	1.0
[RightEye]
25	-30.6760006	64.09500122	92.83499908	0	0	0	1.0
26	-30.6760006	64.09500122	92.83499908	0	0	0	1.0
27	-30.6760006	64.09500122	92.83499908	0	0	0	1.0
28	-30.6760006	64.09500122	92.83499908	0	0	0	1.0
[LeftShoulder]
25	45.70400238	109.4599991	-26.28000069	5.216433525	-33.84273529	-3.168150425	1.0
26	45.70400238	109.4599991	-26.28000069	4.486017227	-34.48152161	0.03452912346	1.0
27	45.70400238	109.4599991	-26.28000069	3.021930933	-30.78533936	5.306045532	1.0
28	45.70400238	109.4599991	-26.28000069	1.750680923	-23.74907875	11.86562443	1.0
[LeftArm]
25	105.923996	-5.24600029	-22.32099915	41.06415939	-9.442680359	-6.280580521	1.0
26	105.923996	-5.24600029	-22.32099915	34.56939697	-18.97569466	7.997792244	1.0
27	105.923996	-5.24600029	-22.32099915	21.37938881	-27.32767487	21.93662453	1.0
28	105.923996	-5.24600029	-22.32099915	4.316606522	-29.7285099	32.56155777	1.0
[LeftForeArm]
25	278.414978	-0.0009999999311	0	1.131559998e-06	-21.3333683	-0.0002106053871	1.0
26	278.414978	-0.0009999999311	0	-3.424874194e-06	-22.71882057	-0.0002076143574	1.0
27	278.414978	-0.0009999999311	0	1.079036338e-05	-26.00487518	-0.0002085828892	1.0
28	278.414978	-0.0009999999311	0	-3.377578423e-06	-31.15561104	-0.000216369619	1.0
[LeftHand]
25	283.2879944	0	0	-52	-18.27944374	-17.46368599	1.0
26	283.2879944	0	0	-48.0262146	-15.11206818	-17.13344383	1.0
27	283.2879944	0	0	-43.29424286	-13.26536751	-17.52532005	1.0
28	283.2879944	0	0	-39.56563187	-11.63605213	-16.07966614	1.0
[LeftHandThumb1]
25	24.6609993	-15.75	26.8239994	-0.4994814992	2.174689293	4.809559345	1.0
26	24.6609993	-15.75	26.8239994	-0.6282936335	1.843937635	4.699230194	1.0
27	24.6609993	-15.75	26.8239994	-0.9391878247	1.038301229	4.43407011	1.0
28	24.6609993	-15.75	26.8239994	-1.37301445	-0.104720518	4.069005013	1.0
[LeftHandThumb2]
25	32.29800034	-18.64699936	18.64699936	1.792197704	19.24850464	11.12643337	1.0
26	32.29800034	-18.64699936	18.64699936	1.362135768	18.05932045	9.031747818	1.0
27	32.29800034	-18.64699936	18.64699936	0.9269120693	15.06714916	8.73846817	1.0
28	32.29800034	-18.64699936	18.64699936	0.5003845692	10.82401371	9.398786545	1.0
[LeftHandThumb3]
25	26.52600098	-15.31499958	15.31499958	-10.04354477	21.61041451	16.79180336	1.0
26	26.52600098	-15.31499958	15.31499958	-10.32515621	21.57025146	19.38920784	1.0
27	26.52600098	-15.31499958	15.31499958	-11.80737209	18.03972244	19.33162689	1.0
28	26.52600098	-15.31499958	15.31499958	-13.97946358	11.94861317	17.31327057	1.0
[LeftHandThumb4]
25	19.54599953	-11.28499985	11.28499985	0	0	0	1.0
26	19.54599953	-11.28499985	11.28499985	0	0	0	1.0
27	19.54599953	-11.28499985	11.28499985	0	0	0	1.0
28	19.54599953	-11.28499985	11.28499985	0	0	0	1.0
[LeftHandIndex1]
25	91.09299469	-5.170999527	22.60099792	0.9426686764	-1.700487494	4.700937748	1.0
26	91.09299469	-5.170999527	22.60099792	0.4313534498	-3.122077465	1.764740705	1.0
27	91.09299469	-5.170999527	22.60099792	0.1730932295	-5.327943325	-0.07366356999	1.0
28	91.09299469	-5.170999527	22.60099792	0.2449917048	-7.56746769	-2.097469091	1.0
[LeftHandIndex2]
25	36.76399994	0	0	-0.2517714202	1.696755171	-16.87946701	1.0
26	36.76399994	0	0	-0.2452518642	1.675148606	-16.65796471	1.0
27	36.76399994	0	0	-0.2467214316	1.680053711	-16.70827293	1.0
28	36.76399994	0	0	-0.2512874007	1.695168853	-16.86313057	1.0
[LeftHandIndex3]
25	28.83100128	0	0	-0.05056917667	0.7671592832	-7.54170084	1.0
26	28.83100128	0	0	-0.04764667526	0.7447456121	-7.320316792	1.0
27	28.83100128	0	0	-0.04829391092	0.7498492599	-7.37069416	1.0
28	28.83100128	0	0	-0.05035664141	0.7655122876	-7.525616646	1.0
[LeftHandIndex4]
25	23.92700005	0	0	0	0	0	1.0
26	23.92700005	0	0	0	0	0	1.0
27	23.92700005	0	0	0	0	0	1.0
28	23.92700005	0	0	0	0	0	1.0
[LeftHandMiddle1]
25	95.33399963	0	0	0.09097790718	-0.9491630197	0.4539868832	1.0
26	95.33399963	0	0	-0.06557544321	-0.6675350666	-3.16496563	1.0
27	95.33399963	0	0	-0.1414990574	-0.496108532	-4.743096828	1.0
28	95.33399963	0	0	-0.19864209	-0.1542853862	-5.842819214	1.0
[LeftHandMiddle2]
25	36.98199844	0	0	-0.2541313171	1.704497576	-16.95890617	1.0
26	36.98199844	0	0	-0.2516950667	1.696498752	-16.87680817	1.0
27	36.98199844	0	0	-0.2561911345	1.711246848	-17.02805138	1.0
28	36.98199844	0	0	-0.262997508	1.733281374	-17.25424004	1.0
[LeftHandMiddle3]
25	29.50900078	0	0	-0.2856942713	1.804711699	-17.98953819	1.0
26	29.50900078	0	0	-0.2831560373	1.796889663	-17.90893555	1.0
27	29.50900078	0	0	-0.2878969014	1.811479568	-18.05940819	1.0
28	29.50900078	0	0	-0.2949568331	1.832957149	-18.28125381	1.0
[LeftHandMiddle4]
25	28.3390007	0	0	0	0	0	1.0
26	28.3390007	0	0	0	0	0	1.0
27	28.3390007	0	0	0	0	0	1.0
28	28.3390007	0	0	0	0	0	1.0
[LeftHandRing1]
25	91.04499817	-0.4390000105	-18.65100098	-0.3523847163	1.46873951	-8.590115547	1.0
26	91.04499817	-0.4390000105	-18.65100098	-0.4718548656	2.104168177	-10.64141273	1.0
27	91.04499817	-0.4390000105	-18.65100098	-0.5356517434	3.615967751	-11.69119644	1.0
28	91.04499817	-0.4390000105	-18.65100098	-0.5771458149	5.708617687	-12.42015171	1.0
[LeftHandRing2]
25	31.54000092	0	0	-0.4066256583	2.141444206	-21.50113297	1.0
26	31.54000092	0	0	-0.413808167	2.159570694	-21.69240952	1.0
27	31.54000092	0	0	-0.4177617729	2.1694839	-21.79723167	1.0
28	31.54000092	0	0	-0.4187608957	2.171978474	-21.82358742	1.0
[LeftHandRing3]
25	29.37700081	0	0	-0.3007126451	1.850291371	-18.46047783	1.0
26	29.37700081	0	0	-0.3068838418	1.868674636	-18.65065765	1.0
27	29.37700081	0	0	-0.3102027178	1.878466249	-18.75216484	1.0
28	29.37700081	0	0	-0.3110124469	1.880861044	-18.77702713	1.0
[LeftHandRing4]
25	26.47500038	0	0	0	0	0	1.0
26	26.47500038	0	0	0	0	0	1.0
27	26.47500038	0	0	0	0	0	1.0
28	26.47500038	0	0	0	0	0	1.0
[LeftHandPinky1]
25	80.77799988	-4.887000084	-38.06099701	-1.588955164	1.849767566	-21.68762779	1.0
26	80.77799988	-4.887000084	-38.06099701	-1.647197485	1.920693636	-20.88237762	1.0
27	80.77799988	-4.887000084	-38.06099701	-1.586112261	4.721750736	-19.93406105	1.0
28	80.77799988	-4.887000084	-38.06099701	-1.473905683	8.909574509	-18.87687111	1.0
[LeftHandPinky2]
25	36	0	0	-0.2988108099	1.844576836	-18.40141678	1.0
26	36	0	0	-0.3081498444	1.872413158	-18.68947411	1.0
27	36	0	0	-0.3106247485	1.879719019	-18.76512337	1.0
28	36	0	0	-0.3054057956	1.864263296	-18.60502625	1.0
[LeftHandPinky3]
25	21.14200211	0	0	-0.2701109946	1.75599432	-17.48768616	1.0
26	21.14200211	0	0	-0.2788205743	1.783444047	-17.77031898	1.0
27	21.14200211	0	0	-0.2811400592	1.790669322	-17.84475517	1.0
28	21.14200211	0	0	-0.276157856	1.7750808	-17.68427467	1.0
[LeftHandPinky4]
25	19.75699997	0	0	0	0	0	1.0
26	19.75699997	0	0	0	0	0	1.0
27	19.75699997	0	0	0	0	0	1.0
28	19.75699997	0	0	0	0	0	1.0
[RightShoulder]
25	-45.70000076	109.4620056	-26.28000069	0.6263129711	7.300943851	-22.70647049	1.0
26	-45.70000076	109.4620056	-26.28000069	1.14014852	3.498787403	-28.15468216	1.0
27	-45.70000076	109.4620056	-26.28000069	0.9377777576	3.686395884	-31.09915352	1.0
28	-45.70000076	109.4620056	-26.28000069	-0.2066098005	7.309074402	-32.53251648	1.0
[RightArm]
25	-105.9280014	-5.248000145	-22.32099915	-27.38123131	45.4700737	18.59869385	1.0
26	-105.9280014	-5.248000145	-22.32099915	-26.75780487	32.6189537	22.52448273	1.0
27	-105.9280014	-5.248000145	-22.32099915	-22.2174263	15.57629395	23.88764191	1.0
28	-105.9280014	-5.248000145	-22.32099915	-16.29419899	-2.428699493	23.29554367	1.0
[RightForeArm]
25	-278.414978	0	0	-1.213165615e-05	69.82826233	-7.318586086e-06	1.0
26	-278.414978	0	0	-3.503612106e-06	69.55383301	-5.4038901e-06	1.0
27	-278.414978	0	0	1.392084982e-06	64.75911713	3.909573024e-06	1.0
28	-278.414978	0	0	-6.267043318e-06	57.19381714	-2.316937753e-06	1.0
[RightHand]
25	-283.2879944	0	0.0009999999311	-6.52905798	1.652227163	31.54926109	1.0
26	-283.2879944	0	0.0009999999311	-7.567358494	3.048032284	23.60947609	1.0
27	-283.2879944	0	0.0009999999311	-10.57403851	5.572249889	14.91479397	1.0
28	-283.2879944	0	0.0009999999311	-14.2789526	7.292345524	7.046783447	1.0
[RightHandPinky1]
25	-80.76699829	-4.885000229	-38.06000137	-1.255735159	-10.21242619	23.82748032	1.0
26	-80.76699829	-4.885000229	-38.06000137	-1.082451224	-12.74767303	21.58825684	1.0
27	-80.76699829	-4.885000229	-38.06000137	-0.8606636524	-15.29241562	18.77039719	1.0
28	-80.76699829	-4.885000229	-38.06000137	-0.7017807364	-17.44673729	16.90943146	1.0
[RightHandPinky2]
25	-36	0	0.0009999999311	-0.2977048457	-1.634901762	20.65397453	1.0
26	-36	0	0.0009999999311	-0.2731736898	-1.568434	19.77855492	1.0
27	-36	0	0.0009999999311	-0.2580571771	-1.52567625	19.2179966	1.0
28	-36	0	0.0009999999311	-0.2627212405	-1.53902626	19.39285851	1.0
[RightHandPinky3]
25	-21.14200211	0	0	-0.2750941515	-1.573560596	19.82665825	1.0
26	-21.14200211	0	0	-0.2523574829	-1.509276509	18.9840641	1.0
27	-21.14200211	0	0	-0.2381583601	-1.467360735	18.4373703	1.0
28	-21.14200211	0	0	-0.242363736	-1.479897976	18.6007061	1.0
[RightHandPinky4]
25	-19.75699997	0	0	0	0	0	1.0
26	-19.75699997	0	0	0	0	0	1.0
27	-19.75699997	0	0	0	0	0	1.0
28	-19.75699997	0	0	0	0	0	1.0
[RightHandRing1]
25	-91.03599548	-0.4390000105	-18.65100098	-0.8820378184	-2.455374956	17.9485836	1.0
26	-91.03599548	-0.4390000105	-18.65100098	-0.8683677912	-3.025905132	17.724123	1.0
27	-91.03599548	-0.4390000105	-18.65100098	-0.8557326794	-4.042268276	17.51617813	1.0
28	-91.03599548	-0.4390000105	-18.65100098	-0.8237987161	-5.583356857	17.04464531	1.0
[RightHandRing2]
25	-31.54000092	0	0	-0.3711888194	-1.81822598	23.07520103	1.0
26	-31.54000092	0	0	-0.3778525293	-1.833803892	23.28423882	1.0
27	-31.54000092	0	0	-0.3805845678	-1.840099573	23.36948586	1.0
28	-31.54000092	0	0	-0.3786379993	-1.835579395	23.30849266	1.0
[RightHandRing3]
25	-29.37700081	0	0	-0.2804553211	-1.58852911	20.0230217	1.0
26	-29.37700081	0	0	-0.286200285	-1.604207158	20.22920418	1.0
27	-29.37700081	0	0	-0.2885041535	-1.610469937	20.31181717	1.0
28	-29.37700081	0	0	-0.2867906094	-1.605824828	20.25062561	1.0
[RightHandRing4]
25	-26.47500038	0	0	0	0	0	1.0
26	-26.47500038	0	0	0	0	0	1.0
27	-26.47500038	0	0	0	0	0	1.0
28	-26.47500038	0	0	0	0	0	1.0
[RightHandMiddle1]
25	-95.32500458	0	0	-0.5190515518	-1.908916116	11.85541534	1.0
26	-95.32500458	0	0	-0.5593109131	-1.166051984	12.59387302	1.0
27	-95.32500458	0	0	-0.67326051	-0.3769192696	14.59788895	1.0
28	-95.32500458	0	0	-0.7230732441	-0.1774222404	15.46078682	1.0
[RightHandMiddle2]
25	-36.98199844	0	0	-0.4765508771	-2.046150923	26.17905617	1.0
26	-36.98199844	0	0	-0.3584839702	-1.788133025	22.67146873	1.0
27	-36.98199844	0	0	-0.2705061138	-1.559378982	19.64257813	1.0
28	-36.98199844	0	0	-0.2303006798	-1.444806099	18.14216042	1.0
[RightHandMiddle3]
25	-29.50900078	0	0	-0.513246417	-2.121180296	27.18929482	1.0
26	-29.50900078	0	0	-0.3909027278	-1.865807772	23.68868637	1.0
27	-29.50900078	0	0	-0.2991395295	-1.639399529	20.66924477	1.0
28	-29.50900078	0	0	-0.2569404244	-1.525722742	19.17084312	1.0
[RightHandMiddle4]
25	-28.3390007	0	0.0009999999311	0	0	0	1.0
26	-28.3390007	0	0.0009999999311	0	0	0	1.0
27	-28.3390007	0	0.0009999999311	0	0	0	1.0
28	-28.3390007	0	0.0009999999311	0	0	0	1.0
[RightHandIndex1]
25	-91.08300018	-5.167999744	22.60099792	-0.2456468791	6.810289383	7.896178246	1.0
26	-91.08300018	-5.167999744	22.60099792	-0.2632284164	8.709763527	8.738603592	1.0
27	-91.08300018	-5.167999744	22.60099792	-0.3876707256	10.45962906	11.56508827	1.0
28	-91.08300018	-5.167999744	22.60099792	-0.4743705094	12.07492733	13.65838432	1.0
[RightHandIndex2]
25	-36.76399994	0	0	-0.2873091698	-1.607021451	20.26655769	1.0
26	-36.76399994	0	0	-0.2467053682	-1.492731571	18.76823044	1.0
27	-36.76399994	0	0	-0.2165764719	-1.400729179	17.57214165	1.0
28	-36.76399994	0	0	-0.2025840282	-1.356227875	16.99597359	1.0
[RightHandIndex3]
25	-28.83100128	0	0	-0.08840824664	-0.9011883736	11.19879055	1.0
26	-28.83100128	0	0	-0.067104958	-0.7862548232	9.755152702	1.0
27	-28.83100128	0	0	-0.05140914768	-0.6882389188	8.529500961	1.0
28	-28.83100128	0	0	-0.04344475269	-0.6338737011	7.85095644	1.0
[RightHandIndex4]
25	-23.92700005	0	0	0	0	0	1.0
26	-23.92700005	0	0	0	0	0	1.0
27	-23.92700005	0	0	0	0	0	1.0
28	-23.92700005	0	0	0	0	0	1.0
[RightHandThumb1]
25	-24.64799881	-15.72700024	26.82600021	-1.918079019	0.4603773952	-3.981221437	1.0
26	-24.64799881	-15.72700024	26.82600021	-2.288641214	1.529345751	-3.647072792	1.0
27	-24.64799881	-15.72700024	26.82600021	-2.791509151	2.976887941	-3.212140799	1.0
28	-24.64799881	-15.72700024	26.82600021	-3.346422672	4.56851387	-2.755951405	1.0
[RightHandThumb2]
25	-32.29800034	-18.64699936	18.64699936	17.9964695	-10.80145264	-26.51247406	1.0
26	-32.29800034	-18.64699936	18.64699936	17.42900085	-7.443650246	-28.96895218	1.0
27	-32.29800034	-18.64699936	18.64699936	16.79792404	-3.902494431	-30.22610474	1.0
28	-32.29800034	-18.64699936	18.64699936	16.29844093	-1.316453815	-29.22383118	1.0
[RightHandThumb3]
25	-26.52600098	-15.31399918	15.31399918	-17.88210297	-1.71060586	-26.6048069	1.0
26	-26.52600098	-15.31399918	15.31399918	-18.15730858	-0.418961525	-24.41711998	1.0
27	-26.52600098	-15.31399918	15.31399918	-17.29830551	-2.024245262	-22.17378044	1.0
28	-26.52600098	-15.31399918	15.31399918	-16.00584793	-4.761545658	-19.94436264	1.0
[RightHandThumb4]
25	-19.54599953	-11.28499985	11.28499985	0	0	0	1.0
26	-19.54599953	-11.28499985	11.28499985	0	0	0	1.0
27	-19.54599953	-11.28499985	11.28499985	0	0	0	1.0
28	-19.54599953	-11.28499985	11.28499985	0	0	0	1.0
[LeftUpLeg]
25	82.07800293	-67.51699829	-15.99599934	-67.56355286	6.261384964	0.595556736	1.0
26	82.07800293	-67.51699829	-15.99599934	-80.19303131	0.3434146941	0.5281777382	1.0
27	82.07800293	-67.51699829	-15.99599934	-95.02857208	-2.20801878	0.834764719	1.0
28	82.07800293	-67.51699829	-15.99599934	-110.4857254	-3.174783707	-1.140029669	1.0
[LeftLeg]
25	0	-443.7049866	2.845999956	87.82863617	-1.754678369	-3.998846054	1.0
26	0	-443.7049866	2.845999956	102.6300735	-1.269037604	-1.537263393	1.0
27	0	-443.7049866	2.845999956	116.3499756	-2.148077011	1.091936588	1.0
28	0	-443.7049866	2.845999956	128.0443115	-5.272498608	3.361015797	1.0
[LeftFoot]
25	0	-444.2789917	-29.8219986	11.36123657	0.8644241095	-5.067116261	1.0
26	0	-444.2789917	-29.8219986	3.408251047	0.3466130495	-2.16480279	1.0
27	0	-444.2789917	-29.8219986	-3.013412714	0.192078501	2.096282721	1.0
28	0	-444.2789917	-29.8219986	-8.570477486	0.2606853843	5.568042278	1.0
[LeftToeBase]
25	0	-87.28699493	107.1060028	-3.045077562	1.245506269e-06	2.986891332e-06	1.0
26	0	-87.28699493	107.1060028	-4.17998457	1.523770834e-06	1.150419848e-06	1.0
27	0	-87.28699493	107.1060028	-5.14766407	3.934450206e-07	-1.334188823e-06	1.0
28	0	-87.28699493	107.1060028	-6.230784416	5.265319032e-06	-2.136953526e-06	1.0
[RightUpLeg]
25	-82.07800293	-67.51699829	-15.99599934	-18.59475517	-13.41097736	-6.892896175	1.0
26	-82.07800293	-67.51699829	-15.99599934	-21.91040421	-10.74579239	-5.617915154	1.0
27	-82.07800293	-67.51699829	-15.99599934	-29.65113258	-11.52175713	-5.222916603	1.0
28	-82.07800293	-67.51699829	-15.99599934	-41.04838943	-13.9373455	-5.212692261	1.0
[RightLeg]
25	0	-443.7049866	2.861999989	19.60146523	-1.538884044	-4.315830231	1.0
26	0	-443.7049866	2.861999989	25.3142662	-4.889406204	-8.898406982	1.0
27	0	-443.7049866	2.861999989	33.86058044	-6.280835629	-7.258580208	1.0
28	0	-443.7049866	2.861999989	46.88858032	-6.947803974	-3.349774599	1.0
[RightFoot]
25	0	-444.2770081	-29.83799934	21.26009369	-2.700501204	13.01714611	1.0
26	0	-444.2770081	-29.83799934	22.93239212	-4.557538509	15.03137112	1.0
27	0	-444.2770081	-29.83799934	22.82664108	-3.143596172	11.90811157	1.0
28	0	-444.2770081	-29.83799934	19.31339264	-1.406241417	8.866256714	1.0
[RightToeBase]
25	0	-87.28699493	107.1060028	-9.771109581	0.02725866437	0.1359023899	1.0
26	0	-87.28699493	107.1060028	-5.912617207	1.981923106e-06	-3.048804274e-06	1.0
27	0	-87.28699493	107.1060028	-2.844885826	4.344013632e-06	9.239424799e-07	1.0
28	0	-87.28699493	107.1060028	-2.406038761	2.113973324e-06	2.097141305e-06	1.0
[EndOfFile]
